<!DOCTYPE svg PUBLIC "-//W3C//DTD SVG 1.1//EN" "http://www.w3.org/Graphics/SVG/1.1/DTD/svg11.dtd">
<!-- Uploaded to: SVG Repo, www.svgrepo.com, Transformed by: SVG Repo Mixer Tools -->
<svg fill="#e66100" height="800px" width="800px" version="1.1" id="Capa_1" xmlns="http://www.w3.org/2000/svg" xmlns:xlink="http://www.w3.org/1999/xlink" viewBox="0 0 26.799 26.799" xml:space="preserve" transform="matrix(1, 0, 0, 1, 0, 0)rotate(0)" stroke="#e66100" stroke-width="0.294789">
<g id="SVGRepo_bgCarrier" stroke-width="0"/>
<g id="SVGRepo_tracerCarrier" stroke-linecap="round" stroke-linejoin="round" stroke="#CCCCCC" stroke-width="0.053598"/>
<g id="SVGRepo_iconCarrier"> <g> <polygon points="10.373,18.104 4.986,15.612 4.986,15.579 10.373,13.069 10.373,11.51 3.029,15.104 3.029,16.056 10.373,19.651 "/> <polygon points="15.818,9.214 14.518,9.214 10.922,20.262 12.225,20.262 "/> <polygon points="23.773,14.907 16.414,11.51 16.414,13.024 22.291,15.563 22.291,15.596 16.414,18.136 16.414,19.651 23.773,16.253 "/> <path d="M0,2.698v21.402h26.799V2.698H0z M23.309,3.952h1.904v1.902h-1.904V3.952z M20.172,3.952h1.906v1.902h-1.906V3.952z M16.855,3.952h1.902v1.902h-1.902V3.952z M25.412,22.611H1.387V7.624h24.025C25.412,7.624,25.412,22.611,25.412,22.611z"/> <g> </g> <g> </g> <g> </g> <g> </g> <g> </g> <g> </g> <g> </g> <g> </g> <g> </g> <g> </g> <g> </g> <g> </g> <g> </g> <g> </g> <g> </g> </g> </g>
</svg>